# xmcd
#
# Track frame offsets:
#  183
#  20060
#  51928
#  70378
#  89770
#  111328
#
# Disc length: 1745 seconds
#
# Revision: 0
# Processed by: cddbd v1.5.1PL0 Copyright (c) Steve Scherf et al.
# Submitted via: AltoMP3_Maker 3.0
#
DISCID=5806cf06
DTITLE=Blackstreet - Blackstreet
DYEAR=1900
DGENRE=
TTITLE0=Booti Call No Rap Radio Mix
TTITLE1=Booti Call T.R Doggie Mix
TTITLE2=Booti Call Gotta get you home with me mix
TTITLE3=Booti Call Doggie Dub Mix
TTITLE4=Booti Call K.C Miami Mix
TTITLE5=Booti Call Teddy Riley Pop Mix
EXTD=
EXTT0=
EXTT1=
EXTT2=
EXTT3=
EXTT4=
EXTT5=
PLAYORDER=
